<svg xmlns="http://www.w3.org/2000/svg" height="45" width="104" viewBox="0 0 104 45"><title>ir-logo</title><g fill-rule="evenodd" fill="none"><path fill="#E73536" d="M40.43 27.75c7.69 0 13.92-6.2 13.92-13.84S48.12.07 40.43.07c-7.69 0-13.92 6.2-13.92 13.84s6.23 13.84 13.92 13.84zm0-6.58c4.04 0 7.31-3.25 7.31-7.26s-3.27-7.27-7.31-7.27c-4.03 0-7.31 3.25-7.31 7.27 0 4.01 3.27 7.27 7.31 7.27zm13-17.37"/><path fill="#E73536" d="M53.43 3.8C55.92 1.49 59.26.07 62.94.07c7.69 0 13.92 6.2 13.92 13.84s-6.23 13.84-13.92 13.84c-3.64 0-6.95-1.39-9.43-3.66 1.49-1.89 2.56-4.12 3.1-6.55a7.324 7.324 0 0 0 6.33 3.64c4.04 0 7.31-3.25 7.31-7.26s-3.27-7.27-7.31-7.27c-2.72 0-5.1 1.48-6.36 3.68a16.47 16.47 0 0 0-3.15-6.53z"/><path fill="#342A3A" d="M66.07 34.33v2.1h-5.29v2.18h4.76v2.01h-4.76v2.19h5.46v2.09h-7.83V34.33h7.66zM53.61 36.37v8.53h-2.37v-8.53h-3.01v-2.04h8.39v2.04h-3.01zM44.1 34.33h2.37V44.9H44.1V34.33zM39.14 34.33h2.37V44.9h-2.37l-5.06-6.62v6.62h-2.37V34.33h2.22l5.21 6.8v-6.8zM26.71 34.33h2.37V44.9h-2.37V34.33zM24.78 34.33v2.07h-4.92v2.28h4.68v2.07h-4.68v4.14h-2.37V34.32h7.29zM12.43 34.33h2.37V44.9h-2.37l-5.06-6.62v6.62H5V34.33h2.22l5.21 6.8v-6.8zM0 34.33h2.37V44.9H0V34.33zM81.44 37.83c0 1.69-.67 2.79-2.02 3.28l2.69 3.78h-2.92l-2.36-3.37h-1.64v3.37h-2.37V34.32h4.03c1.65 0 2.83.28 3.53.83s1.06 1.45 1.06 2.68zm-2.92 1.24c.29-.26.44-.68.44-1.25s-.15-.96-.46-1.17-.84-.32-1.6-.32h-1.78v3.13h1.73c.81 0 1.36-.13 1.66-.39zM91.53 34.33v2.1h-5.29v2.18H91v2.01h-4.76v2.19h5.46v2.09h-7.83V34.33h7.66zM101.88 35.71c1.02.92 1.52 2.2 1.52 3.85s-.49 2.94-1.48 3.9-2.49 1.44-4.52 1.44h-3.63V34.33h3.75c1.9 0 3.35.46 4.36 1.38zm-1.7 6.23c.58-.54.87-1.33.87-2.37s-.29-1.84-.87-2.4c-.59-.56-1.48-.84-2.69-.84h-1.32v6.43h1.5c1.08 0 1.92-.27 2.51-.82z"/></g></svg>